<svg id="visual" viewBox="0 0 1920 1080" width="1920" height="1080" xmlns="http://www.w3.org/2000/svg" xmlns:xlink="http://www.w3.org/1999/xlink" version="1.1"><rect x="0" y="0" width="1920" height="1080" fill="#ede9e8"></rect><path d="M0 618L45.7 665.2C91.3 712.3 182.7 806.7 274.2 817.8C365.7 829 457.3 757 548.8 759.7C640.3 762.3 731.7 839.7 823 825.2C914.3 810.7 1005.7 704.3 1097 676.2C1188.3 648 1279.7 698 1371.2 739.7C1462.7 781.3 1554.3 814.7 1645.8 797C1737.3 779.3 1828.7 710.7 1874.3 676.3L1920 642L1920 1081L1874.3 1081C1828.7 1081 1737.3 1081 1645.8 1081C1554.3 1081 1462.7 1081 1371.2 1081C1279.7 1081 1188.3 1081 1097 1081C1005.7 1081 914.3 1081 823 1081C731.7 1081 640.3 1081 548.8 1081C457.3 1081 365.7 1081 274.2 1081C182.7 1081 91.3 1081 45.7 1081L0 1081Z" fill="#5896e6" stroke-linecap="round" stroke-linejoin="miter"></path></svg>